<svg width="336" height="67" viewBox="0 0 336 67" fill="none" xmlns="http://www.w3.org/2000/svg">
<rect x="74" y="2" width="4" height="62" rx="2" fill="#1A1A1A"/>
<path d="M104.787 53H90.5023V12.7037H104.905C108.958 12.7037 112.448 13.5104 115.373 15.1238C118.298 16.7242 120.547 19.0262 122.122 22.0301C123.709 25.034 124.502 28.6281 124.502 32.8125C124.502 37.01 123.709 40.6173 122.122 43.6343C120.547 46.6512 118.285 48.9664 115.333 50.5799C112.395 52.1933 108.88 53 104.787 53ZM99.022 45.7002H104.433C106.951 45.7002 109.07 45.2542 110.788 44.3623C112.52 43.4572 113.818 42.0602 114.684 40.1713C115.563 38.2693 116.002 35.8164 116.002 32.8125C116.002 29.8349 115.563 27.4016 114.684 25.5127C113.818 23.6238 112.526 22.2334 110.808 21.3414C109.09 20.4495 106.971 20.0035 104.453 20.0035H99.022V45.7002ZM130.813 53V12.7037H157.966V19.728H139.333V29.3299H156.569V36.3542H139.333V45.9757H158.045V53H130.813ZM186.6 24.2928C186.442 22.7056 185.767 21.4726 184.573 20.5937C183.379 19.7149 181.759 19.2755 179.713 19.2755C178.323 19.2755 177.149 19.4722 176.191 19.8657C175.233 20.2461 174.499 20.7774 173.987 21.4595C173.489 22.1416 173.24 22.9155 173.24 23.7813C173.213 24.5027 173.364 25.1323 173.692 25.6701C174.033 26.2079 174.499 26.6736 175.089 27.0671C175.679 27.4475 176.361 27.782 177.135 28.0706C177.909 28.3461 178.736 28.5822 179.615 28.7789L183.235 29.6447C184.993 30.0382 186.606 30.5629 188.075 31.2187C189.544 31.8746 190.817 32.6813 191.892 33.6389C192.968 34.5965 193.801 35.7245 194.391 37.0231C194.995 38.3218 195.303 39.8106 195.316 41.4896C195.303 43.9556 194.673 46.0937 193.427 47.9039C192.194 49.701 190.41 51.098 188.075 52.0949C185.753 53.0787 182.953 53.5706 179.674 53.5706C176.421 53.5706 173.587 53.0721 171.174 52.0752C168.773 51.0783 166.897 49.6026 165.546 47.6481C164.208 45.6806 163.507 43.2473 163.441 40.3484H171.685C171.777 41.6995 172.164 42.8275 172.846 43.7326C173.541 44.6246 174.466 45.3002 175.62 45.7593C176.788 46.2052 178.106 46.4282 179.575 46.4282C181.018 46.4282 182.271 46.2184 183.333 45.7986C184.409 45.3789 185.242 44.7951 185.832 44.0475C186.422 43.2998 186.718 42.4406 186.718 41.4699C186.718 40.5648 186.449 39.804 185.911 39.1875C185.386 38.571 184.612 38.0463 183.589 37.6134C182.579 37.1806 181.34 36.787 179.87 36.4329L175.483 35.331C172.085 34.5046 169.403 33.2126 167.435 31.4549C165.468 29.6971 164.49 27.3295 164.503 24.3519C164.49 21.912 165.14 19.7805 166.451 17.9572C167.776 16.1339 169.593 14.7106 171.902 13.6875C174.21 12.6644 176.834 12.1528 179.772 12.1528C182.763 12.1528 185.373 12.6644 187.603 13.6875C189.846 14.7106 191.591 16.1339 192.837 17.9572C194.083 19.7805 194.726 21.8924 194.765 24.2928H186.6ZM199.512 19.728V12.7037H232.607V19.728H220.27V53H211.849V19.728H199.512ZM238.057 53V12.7037H253.955C256.998 12.7037 259.596 13.2481 261.747 14.3368C263.911 15.4124 265.557 16.9406 266.685 18.9213C267.827 20.8889 268.397 23.2041 268.397 25.8669C268.397 28.5428 267.82 30.8449 266.666 32.7731C265.511 34.6883 263.839 36.1574 261.648 37.1806C259.471 38.2037 256.834 38.7153 253.739 38.7153H243.094V31.8681H252.361C253.988 31.8681 255.339 31.6451 256.415 31.1991C257.49 30.7531 258.29 30.0841 258.815 29.1921C259.353 28.3002 259.622 27.1917 259.622 25.8669C259.622 24.5289 259.353 23.4008 258.815 22.4826C258.29 21.5644 257.484 20.8692 256.395 20.397C255.319 19.9117 253.962 19.669 252.322 19.669H246.577V53H238.057ZM259.819 34.662L269.834 53H260.429L250.63 34.662H259.819ZM274.418 53V12.7037H301.571V19.728H282.938V29.3299H300.174V36.3542H282.938V45.9757H301.65V53H274.418ZM308.344 53V12.7037H335.497V19.728H316.864V29.3299H334.1V36.3542H316.864V45.9757H335.576V53H308.344Z" fill="#222222"/>
<g clip-path="url(#clip0_0_1)">
<path d="M0 67L-2.92866e-06 9.53674e-07L34 -5.32513e-07C51.1208 -1.28089e-06 65 13.8792 65 31L65 36C65 53.1208 51.1208 67 34 67L0 67Z" fill="#2C2C2C"/>
<g clip-path="url(#clip1_0_1)">
<path d="M31.8319 4.47899C33.5815 4.47899 35.2052 5.37479 36.1429 6.85846L66.4601 55.2036C67.2439 56.4493 67.6638 57.8909 67.6638 59.3606C67.6638 63.6856 64.1646 67.1849 59.8396 67.1849H3.82424C-0.500789 67.1849 -4 63.6856 -4 59.3606C-4 57.8909 -3.58009 56.4493 -2.79627 55.2036L27.5209 6.85846C28.4447 5.37479 30.0823 4.47899 31.8319 4.47899ZM40.9299 31.3529L31.8319 16.8522L20.7604 34.5022L23.3218 37.9175C24.2176 39.1072 26.0092 39.1072 26.905 37.9175L30.4882 33.1445C31.328 32.0108 32.6577 31.3529 34.0714 31.3529H40.9299Z" fill="white"/>
</g>
</g>
<path d="M0.5 66.5L0.499997 0.500001L34 0.499999C50.8447 0.499999 64.5 14.1553 64.5 31L64.5 36C64.5 52.8447 50.8447 66.5 34 66.5L0.5 66.5Z" stroke="black"/>
<defs>
<clipPath id="clip0_0_1">
<path d="M0 67L-2.92866e-06 9.53674e-07L34 -5.32513e-07C51.1208 -1.28089e-06 65 13.8792 65 31L65 36C65 53.1208 51.1208 67 34 67L0 67Z" fill="white"/>
</clipPath>
<clipPath id="clip1_0_1">
<rect width="90.5088" height="67" fill="white" transform="translate(-4)"/>
</clipPath>
</defs>
</svg>
