<svg width="2117" height="807" viewBox="0 0 2117 807" fill="none" xmlns="http://www.w3.org/2000/svg">
<path fill-rule="evenodd" clip-rule="evenodd" d="M387.52 8.98077C386.872 3.71831 391.429 -0.707678 396.67 0.0943673L564.52 25.7797C568.094 26.3265 570.856 29.2021 571.26 32.7948L603.288 317.983C603.296 318.062 603.354 318.126 603.431 318.144V318.144C603.541 318.17 603.603 318.286 603.563 318.392L603.43 318.743C603.401 318.82 603.391 318.902 603.4 318.983L603.655 321.256C603.713 321.767 603.285 322.202 602.773 322.153V322.153C602.41 322.118 602.069 322.331 601.939 322.672L500.772 589.27C499.29 593.175 495.055 595.282 491.047 594.11L346.309 551.786C342.301 550.614 338.066 552.722 336.584 556.626L243.708 801.374C242.227 805.278 237.991 807.386 233.983 806.214L81.6421 761.666C77.1987 760.367 74.7824 755.578 76.377 751.232L161.687 518.713C163.281 514.366 160.865 509.578 156.421 508.279L5.75744 464.221C1.31397 462.922 -1.10227 458.133 0.492341 453.787L93.8566 199.313C95.2453 195.528 99.2335 193.368 103.162 194.273L261.752 230.793C266.479 231.881 269.158 236.892 267.437 241.427L176.241 481.747C174.52 486.282 177.199 491.292 181.926 492.381L330.576 526.612C334.505 527.516 338.493 525.356 339.882 521.571L422.162 297.309C422.6 296.116 422.747 294.836 422.591 293.575L387.52 8.98077Z" fill="white"/>
<path d="M751.36 531.699V591.915C751.36 603.657 751.633 611.304 752.179 614.854H701.18V321.968H751.36V335.281C767.882 323.675 783.721 317.872 798.877 317.872C814.033 317.872 827.483 319.988 839.226 324.221C850.968 328.454 861.277 335.008 870.153 343.883C889.678 363.136 899.441 390.581 899.441 426.219C899.441 449.841 893.911 470.937 882.851 489.507C873.43 505.209 860.39 517.771 843.731 527.193C828.985 535.522 813.009 539.687 795.805 539.687C778.6 539.687 763.785 537.024 751.36 531.699ZM751.36 480.085C761.737 488.824 775.187 493.194 791.708 493.194C818.744 493.194 836.222 480.154 844.141 454.074C846.872 445.199 848.237 435.709 848.237 425.605C848.237 415.364 847.282 407.239 845.37 401.232C843.458 395.087 840.932 389.83 837.792 385.461C834.788 380.955 831.374 377.268 827.551 374.401C823.728 371.397 819.836 369.007 815.877 367.232C808.913 364.092 801.744 362.521 794.371 362.521C786.998 362.521 779.351 364.228 771.432 367.642C763.512 371.055 756.822 375.63 751.36 381.364V480.085ZM936.103 260.933C947.027 243.865 958.428 228.845 970.307 215.874L1014.34 250.488C1008.47 257.724 1003.01 264.825 997.957 271.788C997.957 271.788 992.7 279.23 982.187 294.113L936.103 260.933ZM989.97 513.061C989.97 524.803 990.243 532.45 990.789 536H938.766V321.968H989.97V513.061ZM1101.8 509.784C1101.8 521.799 1102.34 530.538 1103.44 536H1052.03V321.968H1101.8V340.197C1119.82 325.313 1139.08 317.872 1159.56 317.872C1181.95 317.872 1199.84 325.518 1213.22 340.811C1226.6 355.967 1233.29 375.971 1233.29 400.822V482.338C1233.29 505.414 1233.63 519.273 1234.31 523.916C1235 528.558 1235.88 531.562 1236.98 532.928C1238.21 534.293 1239.23 535.522 1240.05 536.614L1239.64 537.434C1228.58 536.478 1220.52 536 1215.47 536H1201.13C1196.76 536 1190.89 536.205 1183.52 536.614V424.99C1183.52 384.983 1171.37 364.979 1147.06 364.979C1129.04 364.979 1113.95 374.264 1101.8 392.834V509.784ZM1388.34 490.941C1405.95 490.941 1418.03 486.366 1424.59 477.218H1426.23L1426.84 524.735C1420.15 531.426 1407.72 535.863 1389.56 538.048C1384.65 538.731 1378.5 539.072 1371.13 539.072C1363.89 539.072 1355.97 537.707 1347.37 534.976C1338.91 532.245 1331.67 527.807 1325.66 521.663C1313.24 508.964 1307.02 489.097 1307.02 462.062V369.076H1276.1C1275.96 365.116 1275.89 361.088 1275.89 356.991V325.45C1275.89 323.129 1275.96 321.968 1276.1 321.968H1307.02V263.596H1357.2V321.968H1413.53V369.076H1357.2V452.64C1357.2 474.078 1363.14 486.298 1375.02 489.302C1378.85 490.394 1383.28 490.941 1388.34 490.941ZM1458.38 430.725C1458.38 414.749 1461.11 399.934 1466.57 386.28C1472.04 372.626 1479.75 360.678 1489.72 350.437C1511.02 328.727 1538.87 317.872 1573.28 317.872C1602.37 317.872 1625.72 327.498 1643.33 346.751C1660.67 365.321 1669.34 388.67 1669.34 416.798C1669.34 427.584 1668.52 434.958 1666.88 438.918C1653.23 442.741 1625.44 444.652 1583.52 444.652H1511.43C1514.98 459.263 1523.24 470.664 1536.21 478.857C1549.18 486.913 1566.05 490.941 1586.8 490.941C1608.51 490.941 1627.15 487.049 1642.72 479.266C1646.81 477.218 1649.88 475.306 1651.93 473.531C1651.66 479.266 1651.32 485.138 1650.91 491.145L1648.66 523.097C1638.28 530.197 1621.48 535.112 1598.27 537.843C1591.44 538.663 1584.89 539.072 1578.61 539.072C1543.93 539.072 1515.25 528.968 1492.59 508.76C1469.78 488.415 1458.38 462.403 1458.38 430.725ZM1614.86 404.918C1609.26 375.561 1593.29 360.883 1566.93 360.883C1546.18 360.883 1530.41 369.827 1519.62 387.714C1516.34 393.176 1513.82 399.183 1512.04 405.738C1515.32 405.874 1519.35 406.011 1524.13 406.147H1539.28C1544.34 406.284 1549.18 406.352 1553.83 406.352H1565.5C1572.46 406.352 1579.29 406.284 1585.98 406.147L1602.78 405.533C1607.28 405.396 1611.31 405.191 1614.86 404.918ZM1881.33 516.133C1866.03 531.426 1842.07 539.072 1809.44 539.072C1777.76 539.072 1751.88 529.446 1731.81 510.193C1711.47 490.668 1701.29 464.724 1701.29 432.363C1701.29 399.457 1711.33 372.421 1731.4 351.257C1752.7 329 1781.17 317.872 1816.81 317.872C1842.07 317.872 1863.23 323.402 1880.3 334.462L1872.11 386.895L1870.68 386.69C1864.12 378.77 1857.23 373.582 1849.99 371.124C1838.25 367.027 1826.5 364.979 1814.76 364.979C1803.02 364.979 1793.8 366.481 1787.11 369.485C1780.42 372.489 1774.68 376.654 1769.91 381.979C1760.35 392.902 1755.57 407.376 1755.57 425.4C1755.57 457.351 1766.63 478.242 1788.75 488.073C1796.4 491.35 1804.45 492.989 1812.92 492.989C1821.52 492.989 1828.96 492.238 1835.24 490.736C1841.66 489.234 1847.46 487.186 1852.65 484.591C1863.71 479.13 1871.22 472.78 1875.18 465.544L1876.61 466.158L1881.33 516.133ZM1979.64 513.061C1979.64 524.803 1979.91 532.45 1980.46 536H1929.46V243.114H1979.64V337.944C1997.25 324.562 2015.41 317.872 2034.12 317.872C2057.06 317.872 2075.49 325.45 2089.42 340.606C2103.07 355.763 2109.9 375.834 2109.9 400.822V482.338C2109.9 505.414 2110.24 519.273 2110.92 523.916C2111.61 528.558 2112.49 531.562 2113.59 532.928C2114.81 534.293 2115.84 535.522 2116.66 536.614L2116.25 537.434C2105.19 536.478 2097.13 536 2092.08 536H2077.54C2073.03 536 2067.09 536.205 2059.72 536.614V418.026C2059.72 399.183 2055.55 385.256 2047.23 376.244C2040.94 369.417 2032.41 366.003 2021.62 366.003C2005.65 366.003 1991.65 375.22 1979.64 393.653V513.061Z" fill="white"/>
</svg>
